<svg xmlns="http://www.w3.org/2000/svg" version="1.1" xmlns:xlink="http://www.w3.org/1999/xlink" width="100" height="100"><svg xmlns="http://www.w3.org/2000/svg" version="1.1" xmlns:xlink="http://www.w3.org/1999/xlink" width="100" height="100"><svg width="100" height="100" viewBox="0 0 100 100" fill="none" xmlns="http://www.w3.org/2000/svg">
<rect width="100" height="100" rx="15" fill="#F48120"></rect>
<path d="M17.576 65.32L33.704 34.664L38.824 35.24L22.696 65.896L17.576 65.32ZM28.2 74.024C24.744 74.024 21.7787 73.0853 19.304 71.208C16.872 69.288 14.9947 66.5573 13.672 63.016C12.3493 59.4747 11.688 55.2507 11.688 50.344C11.688 45.4373 12.3493 41.2133 13.672 37.672C14.9947 34.088 16.872 31.336 19.304 29.416C21.7787 27.496 24.744 26.536 28.2 26.536C31.656 26.536 34.6 27.496 37.032 29.416C39.5067 31.336 41.4053 34.088 42.728 37.672C44.0507 41.2133 44.712 45.4373 44.712 50.344C44.712 55.2507 44.0507 59.4747 42.728 63.016C41.4053 66.5573 39.5067 69.288 37.032 71.208C34.6 73.0853 31.656 74.024 28.2 74.024ZM28.2 65.064C29.48 65.064 30.5467 64.552 31.4 63.528C32.296 62.504 32.9787 60.904 33.448 58.728C33.9173 56.5093 34.152 53.7147 34.152 50.344C34.152 46.9307 33.9173 44.136 33.448 41.96C32.9787 39.7413 32.296 38.12 31.4 37.096C30.5467 36.0293 29.48 35.496 28.2 35.496C26.9627 35.496 25.896 36.0293 25 37.096C24.104 38.12 23.4213 39.7413 22.952 41.96C22.4827 44.136 22.248 46.9307 22.248 50.344C22.248 53.7147 22.4827 56.5093 22.952 58.728C23.4213 60.904 24.104 62.504 25 63.528C25.896 64.552 26.9627 65.064 28.2 65.064Z" fill="white"></path>
<path d="M52.0979 58H77.3007C77.836 58.0012 78.3509 58.4195 78.7401 59.1693C79.1294 59.9192 79.3636 60.9441 79.395 62.0345C79.4264 63.125 79.2525 64.1988 78.9089 65.0364C78.5653 65.8741 78.078 66.4124 77.5464 66.5414L77.3007 66.5714H52.0979C51.5626 66.5702 51.0477 66.152 50.6585 65.4021C50.2692 64.6522 50.035 63.6273 50.0036 62.5369C49.9722 61.4464 50.1461 60.3727 50.4897 59.535C50.8333 58.6973 51.3206 58.159 51.8522 58.03L52.0979 58ZM52.0979 45.2857H89.9021C90.4374 45.2869 90.9523 45.7052 91.3415 46.4551C91.7308 47.2049 91.965 48.2298 91.9964 49.3203C92.0278 50.4107 91.8539 51.4845 91.5103 52.3221C91.1667 53.1598 90.6794 53.6981 90.1478 53.8271L89.9021 53.8571H52.0979C51.5626 53.8559 51.0477 53.4377 50.6585 52.6878C50.2692 51.9379 50.035 50.9131 50.0036 49.8226C49.9722 48.7321 50.1461 47.6584 50.4897 46.8207C50.8333 45.9831 51.3206 45.4447 51.8522 45.3157L52.0979 45.2857ZM52.0979 33H83.6014C84.1367 33.0012 84.6516 33.4195 85.0408 34.1693C85.4301 34.9192 85.6643 35.9441 85.6957 37.0345C85.7271 38.125 85.5532 39.1988 85.2096 40.0364C84.866 40.8741 84.3787 41.4124 83.8471 41.5414L83.6014 41.5714H52.0979C51.5626 41.5702 51.0477 41.1519 50.6585 40.4021C50.2692 39.6522 50.035 38.1273 50.0036 37.0369C49.9722 35.9464 50.1461 35.3727 50.4897 34.535C50.8333 33.6973 51.3206 33.159 51.8522 33.03L52.0979 33Z" fill="white"></path>
</svg></svg><style>@media (prefers-color-scheme: light) { :root { filter: none; } }
@media (prefers-color-scheme: dark) { :root { filter: none; } }
</style></svg>